<?xml version="1.0"?><svg xmlns="http://www.w3.org/2000/svg"  viewBox="0 0 30 30" width="30px" height="30px">    <path d="M 10 5 C 9.448 5 9 5.448 9 6 L 9 7 C 9 7.552 8.552 8 8 8 L 3 8 C 2.448 8 2 8.448 2 9 L 2 24 C 2 24.552 2.448 25 3 25 L 27 25 C 27.552 25 28 24.552 28 24 L 28 9 C 28 8.448 27.552 8 27 8 L 22 8 C 21.448 8 21 7.552 21 7 L 21 6 C 21 5.448 20.552 5 20 5 L 10 5 z M 15 9 C 18.866 9 22 12.134 22 16 C 22 19.866 18.866 23 15 23 C 11.134 23 8 19.866 8 16 C 8 12.134 11.134 9 15 9 z M 25 10 C 25.552 10 26 10.448 26 11 C 26 11.552 25.552 12 25 12 C 24.448 12 24 11.552 24 11 C 24 10.448 24.448 10 25 10 z M 15 11 A 5 5 0 0 0 10 16 A 5 5 0 0 0 15 21 A 5 5 0 0 0 20 16 A 5 5 0 0 0 15 11 z"/></svg>